<svg aria-hidden="true" style="position: absolute; width: 0; height: 0; overflow: hidden;" version="1.1" xmlns="http://www.w3.org/2000/svg" xmlns:xlink="http://www.w3.org/1999/xlink">
<defs>
<symbol id="rs_school_js_icon" viewBox="0 0 86 32">
<path d="M49.193 1.169c-2.537 0.325-4.129 1.864-4.129 3.992 0 2.148 1.4 3.353 4.989 4.293 2.356 0.617 2.811 0.908 2.837 1.81 0.035 1.225-1.648 1.858-3.059 1.151-0.538-0.27-0.864-0.69-1.071-1.383l-0.186-0.622-0.987 0.037c-0.543 0.020-1.463 0.075-2.045 0.121l-1.057 0.084 0.095 0.597c0.148 0.931 0.717 2.029 1.411 2.724 2.083 2.083 7.828 1.976 9.882-0.183l0.531-0.558 0.095 0.599c0.17 1.076 1.043 2.61 1.979 3.476 1.192 1.103 2.979 1.934 4.161 1.934 0.223 0 0.405 0.040 0.405 0.088s-0.237 0.411-0.526 0.805c-0.85 1.158-1.226 2.369-1.306 4.208-0.082 1.901 0.094 2.873 0.765 4.215 0.545 1.089 1.521 2.102 2.518 2.611 1.079 0.552 1.955 0.706 4.019 0.708 1.586 0.001 2.111-0.053 2.8-0.288 1.546-0.529 2.75-1.547 3.479-2.941l0.3-0.574 0.006 1.831 0.006 1.831h11.058v-3.298l-6.678-0.077-0.038-5.278-0.038-5.278h-4.305v1.903l-0 1.903-0.317-0.646c-0.408-0.832-1.722-2.135-2.574-2.55-0.366-0.178-1.101-0.432-1.633-0.563l-0.968-0.239 0.412-0.286c0.934-0.647 2.894-2.785 3.422-3.733 1.068-1.917 1.511-3.999 1.228-5.768-0.414-2.586-2.197-4.686-4.718-5.558-0.81-0.28-1.239-0.329-2.822-0.325-1.713 0.005-1.97 0.041-3.12 0.449-2.955 1.046-5.565 3.324-6.758 5.9l-0.338 0.729-0.493-0.661c-0.729-0.979-2.071-1.641-4.602-2.271-2.179-0.542-2.63-0.734-2.743-1.166-0.205-0.784 0.731-1.432 1.809-1.253 0.799 0.133 1.303 0.519 1.579 1.21l0.23 0.575 1.545-0.078c1.567-0.079 2.479-0.178 2.479-0.27 0-0.396-0.672-2.003-1.006-2.408-1.099-1.329-3.572-1.908-6.526-1.53zM1.005 8.244v6.978h4.308v-5.601h0.424c1.014 0 1.224 0.261 3.158 3.913l0.893 1.687h2.429c1.336 0 2.429-0.038 2.429-0.084 0-0.203-2.105-4.076-2.553-4.697-0.3-0.416-0.755-0.819-1.152-1.021l-0.656-0.333 0.713-0.237c2.192-0.728 3.206-3.309 2.149-5.469-0.431-0.881-0.992-1.383-1.958-1.753-0.539-0.207-1.363-0.253-5.411-0.303l-4.775-0.059v6.978zM68.614 2.303c2.006 0.326 3.392 1.16 4.559 2.746 0.369 0.502 0.76 1.261 0.927 1.802 0.351 1.136 0.382 2.915 0.073 4.142-1.107 4.394-5.714 7.97-10.255 7.962-2.728-0.005-4.589-0.862-5.983-2.756-1.544-2.097-1.694-4.882-0.413-7.687 0.7-1.533 1.618-2.629 3.199-3.819 1.775-1.336 2.196-1.586 3.291-1.953 1.648-0.553 3.062-0.687 4.603-0.437zM8.518 4.332c0.475 0.253 0.663 0.571 0.668 1.129 0.010 1.070-0.666 1.43-2.688 1.431l-1.185 0.001v-2.729h1.446c0.823 0 1.581 0.072 1.759 0.167zM66.203 5.971c-1.798 1.022-2.32 2.355-1.329 3.397 0.547 0.575 1.076 0.617 2.407 0.193 1.37-0.438 1.597-0.452 1.78-0.11 0.197 0.368-0.112 0.922-0.611 1.097-0.31 0.109-0.499 0.087-0.816-0.095-0.404-0.232-0.425-0.227-1.065 0.262-0.359 0.274-0.653 0.561-0.653 0.638 0 0.203 0.86 0.695 1.392 0.795 0.589 0.111 1.795-0.426 2.61-1.162 1.023-0.924 1.146-2.228 0.29-3.083-0.569-0.569-1.364-0.583-2.894-0.053-1.258 0.436-1.585 0.358-1.283-0.304 0.194-0.426 0.743-0.6 1.17-0.371 0.305 0.163 0.371 0.129 1.588-0.825 0.039-0.031-0.11-0.212-0.331-0.403-0.548-0.471-1.398-0.462-2.254 0.024zM62.248 8.803c1.205-0.83 0.956-0.649 0.708-0.469l-1.471 1.019-0.326 0.235 1.229 1.72c1.335 1.868 1.515 2.401 0.864 2.564-0.247 0.062-0.454 0.010-0.643-0.161-0.268-0.243-0.303-0.232-0.928 0.28-0.357 0.292-0.649 0.587-0.649 0.655 0 0.222 0.743 0.715 1.309 0.867 0.465 0.125 0.668 0.1 1.273-0.16 1.372-0.59 2.129-1.867 1.718-2.898-0.155-0.39-2.532-3.997-2.62-3.976-0.016 0.004-0.225 0.149-0.465 0.323zM4.021 17.855c-1.112 0.26-1.885 0.699-2.542 1.446-0.651 0.74-0.904 1.45-0.904 2.535 0 2.098 1.61 3.374 5.425 4.299 2.121 0.514 2.791 1.17 2.283 2.234-0.549 1.152-2.527 1.248-3.519 0.171-0.183-0.199-0.418-0.644-0.521-0.988-0.112-0.373-0.267-0.616-0.384-0.601-0.108 0.014-1.027 0.069-2.041 0.123l-1.844 0.098 0.096 0.512c0.375 1.998 1.522 3.4 3.2 3.91 0.891 0.271 1.289 0.302 3.358 0.261 2.191-0.043 2.401-0.071 3.162-0.428 0.861-0.404 2.063-1.409 2.199-1.84 0.067-0.211 0.24-0.098 0.975 0.636 1.39 1.389 2.007 1.582 5.061 1.584l2.444 0.002 0.948-0.467c1.162-0.572 2.022-1.472 2.58-2.702 0.647-1.427 0.683-1.376-1.388-1.995-0.992-0.297-1.821-0.516-1.841-0.488s-0.15 0.355-0.287 0.725c-0.49 1.322-1.173 1.844-2.432 1.859-1.99 0.024-2.734-1.057-2.734-3.969 0-1.272 0.056-1.706 0.289-2.226 0.958-2.145 3.759-2.307 4.752-0.275l0.252 0.515 1.723-0.383c0.948-0.211 1.807-0.411 1.91-0.446 0.136-0.046 0.046-0.343-0.328-1.092-0.641-1.282-1.743-2.334-2.911-2.779-1.031-0.393-3.704-0.548-4.956-0.288-1.291 0.269-2.726 1.058-3.472 1.91-0.355 0.406-0.669 0.71-0.697 0.674s-0.22-0.36-0.426-0.721c-0.416-0.728-1.138-1.292-2.117-1.653-0.859-0.317-4.204-0.416-5.314-0.157zM47.141 17.885c-1.647 0.444-3.024 1.414-3.744 2.639l-0.387 0.658-0.072-1.652-0.072-1.651h-4.308l-0.039 2.405-0.039 2.406h-4.588v-4.883h-4.308v13.93h4.308v-5.601h4.595v5.601h4.452v-3.336l0.564 0.842c0.709 1.060 1.736 1.846 2.987 2.288 0.85 0.3 1.233 0.344 3.024 0.346 2.218 0.003 3.205-0.207 4.315-0.921 0.648-0.417 1.598-1.412 2.015-2.112 0.801-1.345 1.119-4.341 0.666-6.266-0.574-2.433-2.178-4.065-4.622-4.702-1.042-0.271-3.726-0.267-4.745 0.007zM7.175 20.484c0.439 0.259 0.867 0.892 0.867 1.281 0 0.23 0.139 0.243 1.667 0.156 1.419-0.081 1.656-0.064 1.588 0.111-0.044 0.114-0.119 0.454-0.168 0.756s-0.117 0.691-0.153 0.864l-0.064 0.315-0.897-0.418c-0.493-0.23-1.705-0.616-2.692-0.859-2.227-0.547-2.515-0.66-2.69-1.051-0.186-0.415 0.032-1.023 0.436-1.218 0.489-0.236 1.658-0.201 2.105 0.063zM50.835 21.182c0.462 0.24 0.903 0.728 1.237 1.364 0.21 0.401 0.264 0.837 0.268 2.154 0.007 2.512-0.536 3.562-2.046 3.954-1.367 0.355-2.625-0.141-3.23-1.273-0.285-0.534-0.32-0.807-0.32-2.537s0.034-2.003 0.32-2.537c0.357-0.668 0.993-1.183 1.671-1.353 0.555-0.139 1.616-0.024 2.1 0.228zM69.82 21.267c0.335 0.171 0.686 0.529 0.937 0.956 0.384 0.653 0.401 0.764 0.401 2.553 0 1.724-0.029 1.927-0.367 2.585-0.486 0.947-1.257 1.389-2.42 1.389-1.221 0-1.926-0.445-2.546-1.608-0.221-0.414-0.268-0.82-0.268-2.298 0-1.588 0.038-1.873 0.333-2.472 0.332-0.674 0.927-1.163 1.715-1.412 0.533-0.168 1.564-0.025 2.214 0.307z"></path>
</symbol>
<symbol id="github_icon" viewBox="0 0 32 32">
<path d="M16 0c-8.835 0-16 7.164-16 16 0 7.069 4.584 13.067 10.943 15.183 0.799 0.148 1.057-0.348 1.057-0.769v-2.979c-4.451 0.968-5.377-1.888-5.377-1.888-0.728-1.849-1.777-2.341-1.777-2.341-1.452-0.993 0.111-0.972 0.111-0.972 1.607 0.112 2.452 1.649 2.452 1.649 1.427 2.445 3.743 1.739 4.656 1.329 0.143-1.033 0.557-1.74 1.016-2.139-3.553-0.407-7.289-1.779-7.289-7.908 0-1.748 0.625-3.175 1.648-4.295-0.165-0.404-0.713-2.032 0.156-4.235 0 0 1.344-0.429 4.401 1.64 1.276-0.355 2.644-0.532 4.004-0.539 1.36 0.007 2.729 0.184 4.008 0.539 3.055-2.069 4.396-1.64 4.396-1.64 0.871 2.204 0.323 3.832 0.157 4.235 1.027 1.12 1.647 2.548 1.647 4.295 0 6.145-3.743 7.499-7.305 7.895 0.573 0.496 1.097 1.469 1.097 2.963v4.391c0 0.425 0.256 0.925 1.068 0.768 6.353-2.119 10.932-8.115 10.932-15.181 0-8.836-7.164-16-16-16z"></path>
</symbol>
</defs>
</svg>
